<?xml version="1.0" encoding="utf-8"?>
<!-- Generator: Adobe Illustrator 27.1.1, SVG Export Plug-In . SVG Version: 6.00 Build 0)  -->
<svg version="1.1" id="Calque_1" xmlns="http://www.w3.org/2000/svg" xmlns:xlink="http://www.w3.org/1999/xlink" x="0px" y="0px"
	 viewBox="0 0 375 2364" style="enable-background:new 0 0 375 2364;" xml:space="preserve">
<style type="text/css">
	.st0{fill:#153643;}
	.st1{fill:#EA7C2B;}
	.st2{fill:#EB7C2B;}
</style>
<g>
	<g>
		<g>
			<rect y="0" class="st0" width="375" height="2364"/>
		</g>
		<path class="st1" d="M265.1-1c-105.2,12.6-300,438.3-94.3,515.5C345.5,585.4,375,627.3,375,627.3C375,589.8,375,0,375,0
			S326.8-8.4,265.1-1z"/>
		<path class="st2" d="M0,1019.2c0,0,344.3-44.5,349.5,31.8c4.1,60.8-22.6,72-18.5,137.2c4.7,74.8,35.7,136.9,21.4,161.1
			c-31.2,51-295.9,37.4-352.3,31.1"/>
	</g>
	<path class="st1" d="M375,1823.3c0,0-128.1-38.7-187.5-14.7c-40.1,22.6-41.9,31.4-124.6,9.9C3.8,1801.6,2.4,1929,21.2,1965
		c25.1,54.3,326.7,14.7,353.8-6.9"/>
</g>
</svg>
