<?xml version="1.0" encoding="utf-8"?>
<!-- Generator: Adobe Illustrator 27.1.1, SVG Export Plug-In . SVG Version: 6.00 Build 0)  -->
<svg version="1.1" id="Calque_1" xmlns="http://www.w3.org/2000/svg" xmlns:xlink="http://www.w3.org/1999/xlink" x="0px" y="0px"
	 viewBox="0 0 55 55" style="enable-background:new 0 0 55 55;" xml:space="preserve">
<style type="text/css">
	.st0{fill:none;stroke:#000000;stroke-width:4;stroke-miterlimit:10;}
</style>
<circle class="st0" cx="27.5" cy="27.5" r="25.1"/>
<g>
	<g>
		<path d="M21.4,36.3c-0.5,0-0.8-0.3-0.8-0.6V19.4c0-0.4,0.4-0.6,0.8-0.6h1.9c0.5,0,0.8,0.3,0.8,0.6v16.3c0,0.4-0.4,0.6-0.8,0.6
			H21.4z"/>
		<path d="M23.2,19.4v16.3h-1.9V19.4H23.2 M23.2,18.1h-1.9c-0.9,0-1.6,0.5-1.6,1.2v16.3c0,0.7,0.7,1.2,1.6,1.2h1.9
			c0.9,0,1.6-0.5,1.6-1.2V19.4C24.9,18.7,24.1,18.1,23.2,18.1L23.2,18.1z"/>
	</g>
	<g>
		<path d="M31.8,36.3c-0.5,0-0.8-0.3-0.8-0.6V19.4c0-0.4,0.4-0.6,0.8-0.6h1.9c0.5,0,0.8,0.3,0.8,0.6v16.3c0,0.4-0.4,0.6-0.8,0.6
			H31.8z"/>
		<path d="M33.6,19.4v16.3h-1.9V19.4H33.6 M33.6,18.1h-1.9c-0.9,0-1.6,0.5-1.6,1.2v16.3c0,0.7,0.7,1.2,1.6,1.2h1.9
			c0.9,0,1.6-0.5,1.6-1.2V19.4C35.3,18.7,34.5,18.1,33.6,18.1L33.6,18.1z"/>
	</g>
</g>
</svg>
