<?xml version="1.0" encoding="utf-8"?>
<!-- Generator: Adobe Illustrator 27.1.1, SVG Export Plug-In . SVG Version: 6.00 Build 0)  -->
<svg version="1.1" id="Calque_1" xmlns="http://www.w3.org/2000/svg" xmlns:xlink="http://www.w3.org/1999/xlink" x="0px" y="0px"
	 viewBox="0 0 55 55" style="enable-background:new 0 0 55 55;" xml:space="preserve">
<style type="text/css">
	.st0{fill:none;stroke:#000000;stroke-width:4;stroke-miterlimit:10;}
</style>
<circle class="st0" cx="27.5" cy="27.5" r="25.1"/>
<g>
	<path d="M24,35.5c-0.2,0-0.3,0-0.5-0.1c-0.3-0.2-0.6-0.5-0.5-0.9L23.2,19c0-0.4,0.2-0.7,0.6-0.9c0.1-0.1,0.3-0.1,0.4-0.1
		c0.2,0,0.4,0.1,0.6,0.2L34.9,26c0.2,0.2,0.4,0.5,0.4,0.8s-0.1,0.6-0.4,0.8l-10.3,7.8C24.4,35.5,24.2,35.5,24,35.5z"/>
	<path d="M24.2,19l10.1,7.8L24,34.5L24.2,19 M24.2,17c-0.3,0-0.6,0.1-0.9,0.2c-0.7,0.3-1.1,1-1.1,1.8L22,34.5c0,0.8,0.4,1.5,1.1,1.8
		c0.3,0.1,0.6,0.2,0.9,0.2c0.4,0,0.9-0.1,1.2-0.4l10.3-7.8c0.5-0.4,0.8-1,0.8-1.6c0-0.6-0.3-1.2-0.8-1.6l-10.1-7.8
		C25,17.2,24.6,17,24.2,17L24.2,17z"/>
</g>
</svg>
